<svg width="130" height="196" viewBox="0 0 130 196" fill="none" xmlns="http://www.w3.org/2000/svg">
<g style="mix-blend-mode:screen">
<rect width="130" height="196" rx="8" fill="white"/>
</g>
<path d="M47.1135 109.513C48.9814 112.842 51.6063 115.69 54.7756 117.825C57.9449 119.961 61.5696 121.324 65.3561 121.806C69.1427 122.287 72.9848 121.872 76.5712 120.595C80.1577 119.317 83.3878 117.213 86 114.454C80.9401 115.488 75.6726 114.883 70.9638 112.726C66.2551 110.569 62.3506 106.972 59.8184 102.46C57.2861 97.9475 56.2583 92.7543 56.8843 87.6358C57.5103 82.5172 59.7575 77.7403 63.2991 74C59.566 74.7625 56.0701 76.3925 53.0943 78.7581C50.1186 81.1237 47.7467 84.1584 46.1706 87.6165C44.5945 91.0745 43.8586 94.8588 44.0224 98.6628C44.1862 102.467 45.2452 106.184 47.1135 109.513Z" fill="#EEBBC3"/>
<path fill-rule="evenodd" clip-rule="evenodd" d="M9.33436 25.797C10.1349 27.1842 11.2598 28.3707 12.6181 29.2605C13.9764 30.1504 15.5298 30.7185 17.1526 30.919C18.7754 31.1195 20.422 30.9466 21.9591 30.4144C23.4962 29.8822 24.8805 29.0056 26 27.8556C23.8315 28.2867 21.574 28.0345 19.5559 27.1358C17.5379 26.237 15.8645 24.7385 14.7793 22.8583C13.6941 20.9781 13.2535 18.8143 13.5218 16.6816C13.7901 14.5488 14.7532 12.5585 16.271 11C14.6711 11.3177 13.1729 11.9969 11.8976 12.9826C10.6223 13.9682 9.60571 15.2327 8.93025 16.6735C8.25479 18.1144 7.9394 19.6912 8.00961 21.2762C8.07981 22.8612 8.53364 24.41 9.33436 25.797ZM32.3344 25.797C33.1349 27.1842 34.2598 28.3707 35.6181 29.2605C36.9764 30.1504 38.5298 30.7185 40.1526 30.919C41.7754 31.1195 43.422 30.9466 44.9591 30.4144C46.4962 29.8822 47.8805 29.0056 49 27.8556C46.8315 28.2867 44.574 28.0345 42.5559 27.1358C40.5379 26.237 38.8645 24.7385 37.7793 22.8583C36.6941 20.9781 36.2535 18.8143 36.5218 16.6816C36.7901 14.5488 37.7532 12.5585 39.271 11C37.6711 11.3177 36.1729 11.9969 34.8976 12.9826C33.6223 13.9682 32.6057 15.2327 31.9303 16.6735C31.2548 18.1144 30.9394 19.6912 31.0096 21.2762C31.0798 22.8612 31.5336 24.41 32.3344 25.797ZM58.6181 29.2605C57.2598 28.3707 56.1349 27.1842 55.3344 25.797C54.5336 24.41 54.0798 22.8612 54.0096 21.2762C53.9394 19.6912 54.2548 18.1144 54.9303 16.6735C55.6057 15.2327 56.6223 13.9682 57.8976 12.9826C59.1729 11.9969 60.6712 11.3177 62.271 11C60.7532 12.5585 59.7901 14.5488 59.5218 16.6816C59.2535 18.8143 59.6941 20.9781 60.7793 22.8583C61.8645 24.7385 63.5379 26.237 65.5559 27.1358C67.574 28.0345 69.8315 28.2867 72 27.8556C70.8805 29.0056 69.4962 29.8822 67.9591 30.4144C66.422 30.9466 64.7754 31.1195 63.1526 30.919C61.5298 30.7185 59.9764 30.1504 58.6181 29.2605ZM78.3344 25.797C79.1349 27.1842 80.2598 28.3707 81.6181 29.2605C82.9764 30.1504 84.5298 30.7185 86.1526 30.919C87.7754 31.1195 89.422 30.9466 90.9591 30.4144C92.4962 29.8822 93.8805 29.0056 95 27.8556C92.8315 28.2867 90.574 28.0345 88.5559 27.1358C86.5379 26.237 84.8645 24.7385 83.7793 22.8583C82.6941 20.9781 82.2535 18.8143 82.5218 16.6816C82.7901 14.5488 83.7532 12.5585 85.271 11C83.6712 11.3177 82.1729 11.9969 80.8976 12.9826C79.6223 13.9682 78.6057 15.2327 77.9303 16.6735C77.2548 18.1144 76.9394 19.6912 77.0096 21.2762C77.0798 22.8612 77.5336 24.41 78.3344 25.797ZM104.618 29.2605C103.26 28.3707 102.135 27.1842 101.334 25.797C100.534 24.41 100.08 22.8612 100.01 21.2762C99.9394 19.6912 100.255 18.1144 100.93 16.6735C101.606 15.2327 102.622 13.9682 103.898 12.9826C105.173 11.9969 106.671 11.3177 108.271 11C106.753 12.5585 105.79 14.5488 105.522 16.6816C105.254 18.8143 105.694 20.9781 106.779 22.8583C107.865 24.7385 109.538 26.237 111.556 27.1358C113.574 28.0345 115.831 28.2867 118 27.8556C116.88 29.0056 115.496 29.8822 113.959 30.4144C112.422 30.9466 110.775 31.1195 109.153 30.919C107.53 30.7185 105.976 30.1504 104.618 29.2605Z" fill="#B8C1EC" fill-opacity="0.3"/>
<path fill-rule="evenodd" clip-rule="evenodd" d="M12.6181 81.2605C11.2598 80.3707 10.1349 79.1842 9.33436 77.797C8.53364 76.41 8.07981 74.8612 8.00961 73.2762C7.9394 71.6912 8.25479 70.1144 8.93025 68.6735C9.60571 67.2327 10.6223 65.9682 11.8976 64.9826C13.1729 63.9969 14.6711 63.3177 16.271 63C14.7532 64.5585 13.7901 66.5488 13.5218 68.6816C13.2535 70.8143 13.6941 72.9781 14.7793 74.8583C15.8645 76.7385 17.5379 78.237 19.5559 79.1358C21.574 80.0345 23.8315 80.2867 26 79.8556C24.8805 81.0056 23.4962 81.8822 21.9591 82.4144C20.422 82.9466 18.7754 83.1195 17.1526 82.919C15.5298 82.7185 13.9764 82.1504 12.6181 81.2605ZM104.618 81.2605C103.26 80.3707 102.135 79.1842 101.334 77.797C100.534 76.41 100.08 74.8612 100.01 73.2762C99.9394 71.6912 100.255 70.1144 100.93 68.6735C101.606 67.2327 102.622 65.9682 103.898 64.9826C105.173 63.9969 106.671 63.3177 108.271 63C106.753 64.5585 105.79 66.5488 105.522 68.6816C105.254 70.8143 105.694 72.9781 106.779 74.8583C107.865 76.7385 109.538 78.237 111.556 79.1358C113.574 80.0345 115.831 80.2867 118 79.8556C116.88 81.0056 115.496 81.8822 113.959 82.4144C112.422 82.9466 110.775 83.1195 109.153 82.919C107.53 82.7185 105.976 82.1504 104.618 81.2605Z" fill="#B8C1EC" fill-opacity="0.3"/>
<path fill-rule="evenodd" clip-rule="evenodd" d="M116.666 51.797C115.865 53.1842 114.74 54.3707 113.382 55.2605C112.024 56.1504 110.47 56.7185 108.847 56.919C107.225 57.1195 105.578 56.9466 104.041 56.4144C102.504 55.8822 101.12 55.0056 100 53.8556C102.169 54.2867 104.426 54.0345 106.444 53.1358C108.462 52.237 110.135 50.7385 111.221 48.8583C112.306 46.9781 112.746 44.8143 112.478 42.6816C112.21 40.5488 111.247 38.5585 109.729 37C111.329 37.3177 112.827 37.9969 114.102 38.9826C115.378 39.9682 116.394 41.2327 117.07 42.6735C117.745 44.1144 118.061 45.6912 117.99 47.2762C117.92 48.8612 117.466 50.41 116.666 51.797ZM93.6656 51.797C92.8651 53.1842 91.7402 54.3707 90.3819 55.2605C89.0236 56.1504 87.4702 56.7185 85.8474 56.919C84.2246 57.1195 82.578 56.9466 81.0409 56.4144C79.5038 55.8822 78.1195 55.0056 77 53.8556C79.1685 54.2867 81.426 54.0345 83.4441 53.1358C85.4621 52.237 87.1355 50.7385 88.2207 48.8583C89.3059 46.9781 89.7465 44.8143 89.4782 42.6816C89.2099 40.5488 88.2468 38.5585 86.729 37C88.3289 37.3177 89.8271 37.9969 91.1024 38.9826C92.3777 39.9682 93.3943 41.2327 94.0697 42.6735C94.7452 44.1144 95.0606 45.6912 94.9904 47.2762C94.9202 48.8612 94.4664 50.41 93.6656 51.797ZM67.3819 55.2605C68.7402 54.3707 69.8651 53.1842 70.6656 51.797C71.4664 50.41 71.9202 48.8612 71.9904 47.2762C72.0606 45.6912 71.7452 44.1144 71.0697 42.6735C70.3943 41.2327 69.3777 39.9682 68.1024 38.9826C66.8271 37.9969 65.3288 37.3177 63.729 37C65.2468 38.5585 66.2099 40.5488 66.4782 42.6816C66.7465 44.8143 66.3059 46.9781 65.2207 48.8583C64.1355 50.7385 62.4621 52.237 60.4441 53.1358C58.426 54.0345 56.1685 54.2867 54 53.8556C55.1195 55.0056 56.5038 55.8822 58.0409 56.4144C59.578 56.9466 61.2246 57.1195 62.8474 56.919C64.4702 56.7185 66.0236 56.1504 67.3819 55.2605ZM47.6656 51.797C46.8651 53.1842 45.7402 54.3707 44.3819 55.2605C43.0236 56.1504 41.4702 56.7185 39.8474 56.919C38.2246 57.1195 36.578 56.9466 35.0409 56.4144C33.5038 55.8822 32.1195 55.0056 31 53.8556C33.1685 54.2867 35.426 54.0345 37.4441 53.1358C39.4621 52.237 41.1355 50.7385 42.2207 48.8583C43.3059 46.9781 43.7465 44.8143 43.4782 42.6816C43.2099 40.5488 42.2468 38.5585 40.729 37C42.3288 37.3177 43.8271 37.9969 45.1024 38.9826C46.3777 39.9682 47.3943 41.2327 48.0697 42.6735C48.7452 44.1144 49.0606 45.6912 48.9904 47.2762C48.9202 48.8612 48.4664 50.41 47.6656 51.797ZM21.3819 55.2605C22.7402 54.3707 23.8651 53.1842 24.6656 51.797C25.4664 50.41 25.9202 48.8612 25.9904 47.2762C26.0606 45.6912 25.7452 44.1144 25.0697 42.6735C24.3943 41.2327 23.3777 39.9682 22.1024 38.9826C20.8271 37.9969 19.3288 37.3177 17.729 37C19.2468 38.5585 20.2099 40.5488 20.4782 42.6816C20.7465 44.8143 20.3059 46.9781 19.2207 48.8583C18.1355 50.7385 16.4621 52.237 14.4441 53.1358C12.426 54.0345 10.1685 54.2867 8 53.8556C9.11951 55.0056 10.5038 55.8822 12.0409 56.4144C13.578 56.9466 15.2246 57.1195 16.8474 56.919C18.4702 56.7185 20.0236 56.1504 21.3819 55.2605Z" fill="#B8C1EC" fill-opacity="0.3"/>
<path fill-rule="evenodd" clip-rule="evenodd" d="M9.33436 172.203C10.1349 170.816 11.2598 169.629 12.6181 168.739C13.9764 167.85 15.5298 167.281 17.1526 167.081C18.7754 166.881 20.422 167.053 21.9591 167.586C23.4962 168.118 24.8805 168.994 26 170.144C23.8315 169.713 21.574 169.965 19.5559 170.864C17.5379 171.763 15.8645 173.261 14.7793 175.142C13.6941 177.022 13.2535 179.186 13.5218 181.318C13.7901 183.451 14.7532 185.442 16.271 187C14.6711 186.682 13.1729 186.003 11.8976 185.017C10.6223 184.032 9.60571 182.767 8.93025 181.326C8.25479 179.886 7.9394 178.309 8.00961 176.724C8.07981 175.139 8.53364 173.59 9.33436 172.203ZM32.3344 172.203C33.1349 170.816 34.2598 169.629 35.6181 168.739C36.9764 167.85 38.5298 167.281 40.1526 167.081C41.7754 166.881 43.422 167.053 44.9591 167.586C46.4962 168.118 47.8805 168.994 49 170.144C46.8315 169.713 44.574 169.965 42.5559 170.864C40.5379 171.763 38.8645 173.261 37.7793 175.142C36.6941 177.022 36.2535 179.186 36.5218 181.318C36.7901 183.451 37.7532 185.442 39.271 187C37.6711 186.682 36.1729 186.003 34.8976 185.017C33.6223 184.032 32.6057 182.767 31.9303 181.326C31.2548 179.886 30.9394 178.309 31.0096 176.724C31.0798 175.139 31.5336 173.59 32.3344 172.203ZM58.6181 168.739C57.2598 169.629 56.1349 170.816 55.3344 172.203C54.5336 173.59 54.0798 175.139 54.0096 176.724C53.9394 178.309 54.2548 179.886 54.9303 181.326C55.6057 182.767 56.6223 184.032 57.8976 185.017C59.1729 186.003 60.6712 186.682 62.271 187C60.7532 185.442 59.7901 183.451 59.5218 181.318C59.2535 179.186 59.6941 177.022 60.7793 175.142C61.8645 173.261 63.5379 171.763 65.5559 170.864C67.574 169.965 69.8315 169.713 72 170.144C70.8805 168.994 69.4962 168.118 67.9591 167.586C66.422 167.053 64.7754 166.881 63.1526 167.081C61.5298 167.281 59.9764 167.85 58.6181 168.739ZM78.3344 172.203C79.1349 170.816 80.2598 169.629 81.6181 168.739C82.9764 167.85 84.5298 167.281 86.1526 167.081C87.7754 166.881 89.422 167.053 90.9591 167.586C92.4962 168.118 93.8805 168.994 95 170.144C92.8315 169.713 90.574 169.965 88.5559 170.864C86.5379 171.763 84.8645 173.261 83.7793 175.142C82.6941 177.022 82.2535 179.186 82.5218 181.318C82.7901 183.451 83.7532 185.442 85.271 187C83.6712 186.682 82.1729 186.003 80.8976 185.017C79.6223 184.032 78.6057 182.767 77.9303 181.326C77.2548 179.886 76.9394 178.309 77.0096 176.724C77.0798 175.139 77.5336 173.59 78.3344 172.203ZM104.618 168.739C103.26 169.629 102.135 170.816 101.334 172.203C100.534 173.59 100.08 175.139 100.01 176.724C99.9394 178.309 100.255 179.886 100.93 181.326C101.606 182.767 102.622 184.032 103.898 185.017C105.173 186.003 106.671 186.682 108.271 187C106.753 185.442 105.79 183.451 105.522 181.318C105.254 179.186 105.694 177.022 106.779 175.142C107.865 173.261 109.538 171.763 111.556 170.864C113.574 169.965 115.831 169.713 118 170.144C116.88 168.994 115.496 168.118 113.959 167.586C112.422 167.053 110.775 166.881 109.153 167.081C107.53 167.281 105.976 167.85 104.618 168.739Z" fill="#B8C1EC" fill-opacity="0.3"/>
<path fill-rule="evenodd" clip-rule="evenodd" d="M116.666 146.203C115.865 144.816 114.74 143.629 113.382 142.739C112.024 141.85 110.47 141.281 108.847 141.081C107.225 140.881 105.578 141.053 104.041 141.586C102.504 142.118 101.12 142.994 100 144.144C102.169 143.713 104.426 143.965 106.444 144.864C108.462 145.763 110.135 147.261 111.221 149.142C112.306 151.022 112.746 153.186 112.478 155.318C112.21 157.451 111.247 159.442 109.729 161C111.329 160.682 112.827 160.003 114.102 159.017C115.378 158.032 116.394 156.767 117.07 155.326C117.745 153.886 118.061 152.309 117.99 150.724C117.92 149.139 117.466 147.59 116.666 146.203ZM93.6656 146.203C92.8651 144.816 91.7402 143.629 90.3819 142.739C89.0236 141.85 87.4702 141.281 85.8474 141.081C84.2246 140.881 82.578 141.053 81.0409 141.586C79.5038 142.118 78.1195 142.994 77 144.144C79.1685 143.713 81.426 143.965 83.4441 144.864C85.4621 145.763 87.1355 147.261 88.2207 149.142C89.3059 151.022 89.7465 153.186 89.4782 155.318C89.2099 157.451 88.2468 159.442 86.729 161C88.3289 160.682 89.8271 160.003 91.1024 159.017C92.3777 158.032 93.3943 156.767 94.0697 155.326C94.7452 153.886 95.0606 152.309 94.9904 150.724C94.9202 149.139 94.4664 147.59 93.6656 146.203ZM67.3819 142.739C68.7402 143.629 69.8651 144.816 70.6656 146.203C71.4664 147.59 71.9202 149.139 71.9904 150.724C72.0606 152.309 71.7452 153.886 71.0697 155.326C70.3943 156.767 69.3777 158.032 68.1024 159.017C66.8271 160.003 65.3288 160.682 63.729 161C65.2468 159.442 66.2099 157.451 66.4782 155.318C66.7465 153.186 66.3059 151.022 65.2207 149.142C64.1355 147.261 62.4621 145.763 60.4441 144.864C58.426 143.965 56.1685 143.713 54 144.144C55.1195 142.994 56.5038 142.118 58.0409 141.586C59.578 141.053 61.2246 140.881 62.8474 141.081C64.4702 141.281 66.0236 141.85 67.3819 142.739ZM47.6656 146.203C46.8651 144.816 45.7402 143.629 44.3819 142.739C43.0236 141.85 41.4702 141.281 39.8474 141.081C38.2246 140.881 36.578 141.053 35.0409 141.586C33.5038 142.118 32.1195 142.994 31 144.144C33.1685 143.713 35.426 143.965 37.4441 144.864C39.4621 145.763 41.1355 147.261 42.2207 149.142C43.3059 151.022 43.7465 153.186 43.4782 155.318C43.2099 157.451 42.2468 159.442 40.729 161C42.3288 160.682 43.8271 160.003 45.1024 159.017C46.3777 158.032 47.3943 156.767 48.0697 155.326C48.7452 153.886 49.0606 152.309 48.9904 150.724C48.9202 149.139 48.4664 147.59 47.6656 146.203ZM21.3819 142.739C22.7402 143.629 23.8651 144.816 24.6656 146.203C25.4664 147.59 25.9202 149.139 25.9904 150.724C26.0606 152.309 25.7452 153.886 25.0697 155.326C24.3943 156.767 23.3777 158.032 22.1024 159.017C20.8271 160.003 19.3288 160.682 17.729 161C19.2468 159.442 20.2099 157.451 20.4782 155.318C20.7465 153.186 20.3059 151.022 19.2207 149.142C18.1355 147.261 16.4621 145.763 14.4441 144.864C12.426 143.965 10.1685 143.713 8 144.144C9.11951 142.994 10.5038 142.118 12.0409 141.586C13.578 141.053 15.2246 140.881 16.8474 141.081C18.4702 141.281 20.0236 141.85 21.3819 142.739Z" fill="#B8C1EC" fill-opacity="0.3"/>
<path fill-rule="evenodd" clip-rule="evenodd" d="M12.6181 116.739C11.2598 117.629 10.1349 118.816 9.33436 120.203C8.53364 121.59 8.07981 123.139 8.00961 124.724C7.9394 126.309 8.25479 127.886 8.93025 129.326C9.60571 130.767 10.6223 132.032 11.8976 133.017C13.1729 134.003 14.6711 134.682 16.271 135C14.7532 133.442 13.7901 131.451 13.5218 129.318C13.2535 127.186 13.6941 125.022 14.7793 123.142C15.8645 121.261 17.5379 119.763 19.5559 118.864C21.574 117.965 23.8315 117.713 26 118.144C24.8805 116.994 23.4962 116.118 21.9591 115.586C20.422 115.053 18.7754 114.881 17.1526 115.081C15.5298 115.281 13.9764 115.85 12.6181 116.739ZM104.618 116.739C103.26 117.629 102.135 118.816 101.334 120.203C100.534 121.59 100.08 123.139 100.01 124.724C99.9394 126.309 100.255 127.886 100.93 129.326C101.606 130.767 102.622 132.032 103.898 133.017C105.173 134.003 106.671 134.682 108.271 135C106.753 133.442 105.79 131.451 105.522 129.318C105.254 127.186 105.694 125.022 106.779 123.142C107.865 121.261 109.538 119.763 111.556 118.864C113.574 117.965 115.831 117.713 118 118.144C116.88 116.994 115.496 116.118 113.959 115.586C112.422 115.053 110.775 114.881 109.153 115.081C107.53 115.281 105.976 115.85 104.618 116.739Z" fill="#B8C1EC" fill-opacity="0.3"/>
<path fill-rule="evenodd" clip-rule="evenodd" d="M113.382 90.7395C114.74 91.6293 115.865 92.8158 116.666 94.203C117.466 95.59 117.92 97.1388 117.99 98.7238C118.061 100.309 117.745 101.886 117.07 103.326C116.394 104.767 115.378 106.032 114.102 107.017C112.827 108.003 111.329 108.682 109.729 109C111.247 107.442 112.21 105.451 112.478 103.318C112.746 101.186 112.306 99.0219 111.221 97.1417C110.135 95.2615 108.462 93.763 106.444 92.8642C104.426 91.9655 102.169 91.7133 100 92.1444C101.12 90.9944 102.504 90.1178 104.041 89.5856C105.578 89.0534 107.225 88.8805 108.847 89.081C110.47 89.2815 112.024 89.8496 113.382 90.7395ZM21.3819 90.7395C22.7402 91.6293 23.8651 92.8158 24.6656 94.203C25.4664 95.59 25.9202 97.1388 25.9904 98.7238C26.0606 100.309 25.7452 101.886 25.0697 103.326C24.3943 104.767 23.3777 106.032 22.1024 107.017C20.8271 108.003 19.3288 108.682 17.729 109C19.2468 107.442 20.2099 105.451 20.4782 103.318C20.7465 101.186 20.3059 99.0219 19.2207 97.1417C18.1355 95.2615 16.4621 93.763 14.4441 92.8642C12.426 91.9655 10.1685 91.7133 8 92.1444C9.11951 90.9944 10.5038 90.1178 12.0409 89.5856C13.578 89.0534 15.2246 88.8805 16.8474 89.081C18.4702 89.2815 20.0236 89.8496 21.3819 90.7395Z" fill="#B8C1EC" fill-opacity="0.3"/>
</svg>
