<svg width="149" height="34" viewBox="0 0 149 34" fill="none" xmlns="http://www.w3.org/2000/svg">
<path d="M13.1389 8.37523C15.7574 8.37523 18.0515 8.87426 20.0212 9.87233C21.9909 10.8704 23.5203 12.3211 24.6094 14.2244C25.6985 16.1044 26.2431 18.3559 26.2431 20.9787C26.2431 23.5319 25.687 25.795 24.5747 27.7679C23.4624 29.7408 21.9098 31.2727 19.917 32.3636C17.9241 33.4545 15.6532 34 13.1042 34C10.4857 34 8.19156 33.501 6.22188 32.5029C4.25219 31.5048 2.72279 30.0658 1.63368 28.1857C0.544559 26.2824 0 24.0193 0 21.3965C0 18.8433 0.556145 16.5803 1.66844 14.6073C2.78073 12.6344 4.3333 11.1025 6.32615 10.0116C8.31901 8.92069 10.5899 8.37523 13.1389 8.37523ZM12.9999 9.00192C11.8644 9.00192 10.8564 9.52417 9.97586 10.5687C9.11846 11.5899 8.45804 13.029 7.99459 14.8859C7.53113 16.7427 7.29941 18.8665 7.29941 21.2572C7.29941 23.6712 7.56589 25.795 8.09887 27.6286C8.63184 29.4623 9.35019 30.8781 10.2539 31.8762C11.1577 32.8743 12.1541 33.3733 13.2432 33.3733C14.3787 33.3733 15.3751 32.8627 16.2325 31.8414C17.1131 30.7969 17.7851 29.3462 18.2485 27.4893C18.712 25.6325 18.9437 23.5087 18.9437 21.118C18.9437 18.7041 18.6772 16.5803 18.1442 14.7466C17.6113 12.9129 16.8929 11.4971 15.9892 10.499C15.0854 9.50096 14.089 9.00192 12.9999 9.00192Z" fill="#FFFFFE"/>
<path d="M41.9594 14.9555C43.8132 14.9555 45.1224 15.4197 45.8871 16.3482C46.2347 16.7659 46.4896 17.3346 46.6518 18.0541C46.8141 18.7505 46.8952 19.6789 46.8952 20.8394V30.2747C46.8952 31.2263 47.0342 31.8878 47.3123 32.2592C47.6135 32.6073 48.1233 32.7814 48.8417 32.7814V33.5126C46.339 33.4197 44.7169 33.3733 43.9754 33.3733C43.1875 33.3733 41.5423 33.4197 39.0396 33.5126V32.7814C39.6421 32.7814 40.0592 32.6073 40.2909 32.2592C40.5227 31.8878 40.6385 31.2263 40.6385 30.2747V18.9594C40.6385 18.2166 40.4995 17.6712 40.2214 17.323C39.9665 16.9516 39.5378 16.7659 38.9353 16.7659C38.2633 16.7659 37.6724 17.0097 37.1626 17.4971C36.676 17.9613 36.4327 18.5532 36.4327 19.2727V30.2747C36.4327 31.2263 36.5485 31.8878 36.7803 32.2592C37.012 32.6073 37.4291 32.7814 38.0316 32.7814V33.5126C35.7143 33.4197 34.1849 33.3733 33.4434 33.3733C32.6555 33.3733 30.9176 33.4197 28.2295 33.5126V32.7814C28.9479 32.7814 29.4461 32.6073 29.7242 32.2592C30.0254 31.8878 30.176 31.2263 30.176 30.2747V19.2379C30.176 18.1702 30.0254 17.3926 29.7242 16.9052C29.4461 16.4178 28.9479 16.1741 28.2295 16.1741V15.4429C28.9711 15.5126 29.6894 15.5474 30.3846 15.5474C32.7946 15.5474 34.8106 15.3849 36.4327 15.0599V17.5667C37.4754 15.8259 39.3177 14.9555 41.9594 14.9555Z" fill="#FFFFFE"/>
<path d="M60.7988 30.205C62.4904 30.205 63.8923 29.4275 65.0046 27.8723L65.5955 28.0812C65.0857 29.706 64.2168 31.0986 62.9886 32.2592C61.7836 33.4197 60.2311 34 58.3309 34C55.8978 34 53.9512 33.2456 52.4914 31.7369C51.0315 30.2282 50.3015 27.8143 50.3015 24.4952C50.3015 21.3153 51.1126 18.9362 52.7347 17.3578C54.3799 15.7563 56.5466 14.9555 59.2346 14.9555C63.6143 14.9555 65.8041 17.5551 65.8041 22.7543H56.8363C56.8131 23.0329 56.8015 23.4507 56.8015 24.0077C56.8015 26.236 57.1838 27.8259 57.9485 28.7776C58.7364 29.7292 59.6865 30.205 60.7988 30.205ZM58.9913 15.7563C57.6936 15.7563 56.9289 17.8685 56.6972 22.0928H60.7293C60.7524 20.236 60.6134 18.7157 60.3122 17.5319C60.0341 16.3482 59.5938 15.7563 58.9913 15.7563Z" fill="#FFFFFE"/>
<path d="M72.3016 6.28625C73.5066 6.28625 74.4335 6.54157 75.0823 7.05221C75.7543 7.56285 76.0903 8.3056 76.0903 9.28045C76.0903 10.2553 75.7543 10.9981 75.0823 11.5087C74.4335 12.0193 73.5066 12.2747 72.3016 12.2747C71.0734 12.2747 70.1349 12.0193 69.4861 11.5087C68.8373 10.9981 68.5129 10.2553 68.5129 9.28045C68.5129 8.3056 68.8373 7.56285 69.4861 7.05221C70.1349 6.54157 71.0734 6.28625 72.3016 6.28625ZM75.6385 30.2747C75.6385 31.2263 75.7775 31.8878 76.0556 32.2592C76.3568 32.6073 76.8666 32.7814 77.585 32.7814V33.5126C75.0823 33.4197 73.4371 33.3733 72.6492 33.3733C71.8613 33.3733 70.1234 33.4197 67.4353 33.5126V32.7814C68.1537 32.7814 68.6519 32.6073 68.93 32.2592C69.2312 31.8878 69.3818 31.2263 69.3818 30.2747V19.2379C69.3818 18.1702 69.2312 17.3926 68.93 16.9052C68.6519 16.4178 68.1537 16.1741 67.4353 16.1741V15.4429C68.1769 15.5126 68.8952 15.5474 69.5904 15.5474C72.0004 15.5474 74.0164 15.3849 75.6385 15.0599V30.2747Z" fill="#FFFFFE"/>
<path d="M91.5956 14.9555C92.7311 14.9555 93.5421 15.3037 94.0287 16C94.5385 16.6963 94.7934 17.5203 94.7934 18.4719C94.7934 19.5164 94.4922 20.352 93.8897 20.9787C93.3104 21.5822 92.5457 21.8839 91.5956 21.8839C90.5992 21.8839 89.8345 21.6634 89.3015 21.2224C88.7685 20.7582 88.5021 20.1431 88.5021 19.3772C88.5021 18.0077 89.093 16.9284 90.2748 16.1393C89.8577 16.1393 89.4869 16.2205 89.1625 16.383C88.5832 16.6383 88.0965 17.0561 87.7026 17.6364C87.3087 18.1934 87.1117 18.8085 87.1117 19.4816V29.9265C87.1117 31.0174 87.3318 31.7717 87.7721 32.1895C88.2356 32.5841 89.0118 32.7814 90.101 32.7814V33.5126C89.7997 33.5126 89.5448 33.501 89.3363 33.4777C86.9031 33.4081 85.281 33.3733 84.47 33.3733C83.7516 33.3733 82.1411 33.4081 79.6385 33.4777C79.4531 33.501 79.2098 33.5126 78.9085 33.5126V32.7814C79.6269 32.7814 80.1251 32.6073 80.4032 32.2592C80.7044 31.8878 80.8551 31.2263 80.8551 30.2747V19.2379C80.8551 18.1702 80.7044 17.3926 80.4032 16.9052C80.1251 16.4178 79.6269 16.1741 78.9085 16.1741V15.4429C79.6501 15.5126 80.3684 15.5474 81.0636 15.5474C83.4736 15.5474 85.4896 15.3849 87.1117 15.0599V17.5667C87.9922 15.8259 89.4869 14.9555 91.5956 14.9555Z" fill="#FFFFFE"/>
<path d="M100.509 6.28625C101.714 6.28625 102.641 6.54157 103.29 7.05221C103.962 7.56285 104.298 8.3056 104.298 9.28045C104.298 10.2553 103.962 10.9981 103.29 11.5087C102.641 12.0193 101.714 12.2747 100.509 12.2747C99.2812 12.2747 98.3428 12.0193 97.6939 11.5087C97.0451 10.9981 96.7207 10.2553 96.7207 9.28045C96.7207 8.3056 97.0451 7.56285 97.6939 7.05221C98.3428 6.54157 99.2812 6.28625 100.509 6.28625ZM103.846 30.2747C103.846 31.2263 103.985 31.8878 104.263 32.2592C104.565 32.6073 105.074 32.7814 105.793 32.7814V33.5126C103.29 33.4197 101.645 33.3733 100.857 33.3733C100.069 33.3733 98.3312 33.4197 95.6431 33.5126V32.7814C96.3615 32.7814 96.8597 32.6073 97.1378 32.2592C97.439 31.8878 97.5897 31.2263 97.5897 30.2747V19.2379C97.5897 18.1702 97.439 17.3926 97.1378 16.9052C96.8597 16.4178 96.3615 16.1741 95.6431 16.1741V15.4429C96.3847 15.5126 97.103 15.5474 97.7982 15.5474C100.208 15.5474 102.224 15.3849 103.846 15.0599V30.2747Z" fill="#FFFFFE"/>
<path d="M116.362 14.9555C117.312 14.9555 118.181 15.0599 118.969 15.2688C119.78 15.4545 120.441 15.6982 120.95 16C121.599 16.3714 122.109 16.8704 122.48 17.4971C122.851 18.1238 123.036 18.8317 123.036 19.6209C123.036 20.5957 122.723 21.4081 122.098 22.058C121.472 22.6847 120.672 22.9981 119.699 22.9981C118.703 22.9981 117.915 22.7195 117.336 22.1625C116.779 21.5822 116.501 20.8162 116.501 19.8646C116.501 19.029 116.768 18.2979 117.301 17.6712C117.857 17.0213 118.541 16.5919 119.352 16.383C119.004 16.1044 118.54 15.9652 117.961 15.9652C116.478 15.9652 115.435 16.7659 114.833 18.3675C114.23 19.9458 113.929 21.8259 113.929 24.0077C113.929 26.236 114.346 27.8259 115.18 28.7776C116.015 29.7292 117.046 30.205 118.274 30.205C119.966 30.205 121.368 29.4275 122.48 27.8723L123.071 28.0812C122.561 29.706 121.692 31.0986 120.464 32.2592C119.259 33.4197 117.706 34 115.806 34C113.28 34 111.253 33.2456 109.723 31.7369C108.194 30.2282 107.429 27.8143 107.429 24.4952C107.429 21.3153 108.24 18.9362 109.862 17.3578C111.508 15.7563 113.674 14.9555 116.362 14.9555Z" fill="#FFFFFE"/>
<path d="M130.285 17.4396C131.172 19.0307 132.417 20.3917 133.921 21.4124C135.426 22.4331 137.146 23.0848 138.943 23.3147C140.74 23.5447 142.563 23.3464 144.265 22.7359C145.967 22.1255 147.5 21.12 148.74 19.8009C146.339 20.2954 143.839 20.0061 141.604 18.9752C139.369 17.9443 137.516 16.2254 136.315 14.0688C135.113 11.9121 134.625 9.43007 134.922 6.98374C135.219 4.5374 136.286 2.25436 137.967 0.466728C136.195 0.831159 134.536 1.61021 133.124 2.74081C131.711 3.87142 130.586 5.32179 129.838 6.97452C129.09 8.62725 128.74 10.4359 128.818 12.254C128.896 14.0721 129.399 15.8485 130.285 17.4396Z" fill="#EEBBC3"/>
</svg>
